# xmcd
# 
# Track frame offsets:
#     150
#     10010
#     25090
#     35527
#     47540
#     59790
#     72137
#     83045
#     95327
#     109700
#     123407
#     135410
#     146232
#     159495
#     177555
#     190220
#     203247
#     217545
#     228290
#     242740
# 
# Disc length: 3401
# 
# Revision: 13
# Processed by: cddbd v1.5.2PL0 Copyright (c) Steve Scherf et al.
# Submitted via: fre:ac v1.0.27
# 
DISCID=0d0d4714
DTITLE=Otis Redding - The Very Best Of Otis Redding [CD 1)
DYEAR=2000
DGENRE=Soul
TTITLE0=Respect
TTITLE1=Try A Little Tenderness
TTITLE2=Love Man
TTITLE3=Shake
TTITLE4=Mr Pitiful
TTITLE5=I Can`t Turn You Loose
TTITLE6=Pain In My Heart
TTITLE7=You Left The Water Running
TTITLE8=My Lover`s Prayer
TTITLE9=Tramp
TTITLE10=Chained And Bound
TTITLE11=That's How Strong My Love Is
TTITLE12=My Girl
TTITLE13=Cigarettes And Coffee
TTITLE14=It's Growing
TTITLE15=The Match Game
TTITLE16=Nobody Knows You (When You`re Down And Out)
TTITLE17=I'm A Changed Man
TTITLE18=Your One And Only Man
TTITLE19=(Sittin' On) The Dock Of The Bay
EXTD=
EXTT0=
EXTT1=
EXTT2=
EXTT3=
EXTT4=
EXTT5=
EXTT6=
EXTT7=
EXTT8=
EXTT9=
EXTT10=
EXTT11=
EXTT12=
EXTT13=
EXTT14=
EXTT15=
EXTT16=
EXTT17=
EXTT18=
EXTT19=
PLAYORDER=
